<svg xmlns="http://www.w3.org/2000/svg" width="24.929" height="24.929" viewBox="0 0 24.929 24.929">
    <title>LinkedIn</title>
    <desc>Lettres "i" et "n" dans un carré</desc>
    <path id="Icon_awesome-linkedin" data-name="Icon awesome-linkedin" d="M23.149,2.25H1.775A1.788,1.788,0,0,0,0,4.047V25.382a1.788,1.788,0,0,0,1.775,1.8H23.149a1.793,1.793,0,0,0,1.781-1.8V4.047A1.793,1.793,0,0,0,23.149,2.25ZM7.534,23.618H3.84v-11.9h3.7v11.9ZM5.687,10.1A2.142,2.142,0,1,1,7.829,7.954,2.143,2.143,0,0,1,5.687,10.1Zm15.7,13.522H17.69V17.831c0-1.38-.028-3.155-1.92-3.155-1.925,0-2.22,1.5-2.22,3.055v5.887H9.855v-11.9H13.4v1.625h.05a3.892,3.892,0,0,1,3.5-1.92c3.739,0,4.435,2.465,4.435,5.67Z" transform="translate(0 -2.25)" fill="#383f51"/>
</svg>

