<svg xmlns="http://www.w3.org/2000/svg" width="24.929" height="24.929" viewBox="0 0 24.929 24.929">
    <title>Téléphone</title>
    <desc>Dessin d'un téléphone</desc>
    <path id="Icon_awesome-phone-alt" data-name="Icon awesome-phone-alt"
          d="M24.218,17.616l-5.453-2.337a1.169,1.169,0,0,0-1.363.336l-2.415,2.951A18.048,18.048,0,0,1,6.359,9.938L9.31,7.523A1.166,1.166,0,0,0,9.646,6.16L7.308.707A1.176,1.176,0,0,0,5.969.03L.906,1.2A1.169,1.169,0,0,0,0,2.337,22.59,22.59,0,0,0,22.592,24.93a1.169,1.169,0,0,0,1.139-.906L24.9,18.96a1.183,1.183,0,0,0-.682-1.344Z"
          transform="translate(0 0)" fill="#383f51"/>
</svg>

